<?xml version="1.0" encoding="UTF-8"?>
<svg version="1.1" xmlns="http://www.w3.org/2000/svg" width="171" height="40">
<path d="M0 0 C56.43 0 112.86 0 171 0 C171 13.2 171 26.4 171 40 C114.57 40 58.14 40 0 40 C0 26.8 0 13.6 0 0 Z " fill="#030303" transform="translate(0,0)"/>
<path d="M0 0 C3.62011046 2.33296007 5.89022378 4.96794755 7.8125 8.8125 C8.13689802 15.40859302 7.90907615 19.44713203 3.375 24.5625 C-0.53113861 27.99228024 -3.91612731 28.16275139 -8.90625 28.08984375 C-13.80524164 27.49424716 -16.46403217 24.65019959 -19.5625 21.0625 C-21.51823341 17.15103319 -22.09897736 14.05285121 -21.1875 9.8125 C-19.3532171 5.44924832 -17.20545435 2.52064215 -13.3125 -0.1875 C-8.41782719 -1.7537953 -4.82985106 -1.79935628 0 0 Z " fill="#06050E" transform="translate(24.1875,6.1875)"/>
<path d="M0 0 C3.71142474 2.61486743 6.69417185 4.80472218 8.75 8.9375 C9.71121045 14.78486358 9.5941958 19.96770981 7.25 25.4375 C2.8842712 29.8032288 -1.34537545 33.1482319 -7.6875 33.625 C-13.11828421 33.30498845 -17.32490036 30.57097577 -21.25 26.9375 C-25.2117235 21.58962043 -25.03430289 16.36006922 -24.25 9.9375 C-19.35441203 -0.21631209 -10.44193302 -3.41370887 0 0 Z M-19.25 5.9375 C-22.01421395 9.82467586 -22.80335288 13.29806916 -22.59765625 17.984375 C-21.77402863 22.61149648 -18.96037774 25.30972432 -15.5625 28.3125 C-11.29170085 30.40760902 -7.92414082 30.65593276 -3.25 29.9375 C0.79741683 28.13864808 4.70564842 25.37432036 6.5 21.1875 C7.30983346 14.12455276 7.30983346 14.12455276 5 7.625 C1.28890794 3.19230671 -1.62018127 1.24689044 -7.4375 0.5625 C-12.39475724 1.05009907 -15.48704683 2.72542961 -19.25 5.9375 Z " fill="#7C73F7" transform="translate(25.25,4.0625)"/>
<path d="M0 0 C4.93731454 1.46290801 4.93731454 1.46290801 6.375 4 C6.7648913 7.57400356 6.74520241 10.09763163 5.375 13.4375 C2.77569564 15.46820653 0.56169274 15.5621101 -2.68359375 15.3828125 C-4.625 15 -4.625 15 -7.125 13.375 C-9.10698314 10.23686002 -9.29564058 8.65126535 -8.625 5 C-5.91953265 1.14675862 -4.77773264 0 0 0 Z " fill="#4A3FDB" transform="translate(18.625,12)"/>
<path d="M0 0 C-0.375 2.9375 -0.375 2.9375 -1 6 C-1.99 6.495 -1.99 6.495 -3 7 C-2.01 7.66 -1.02 8.32 0 9 C0.1875 11.625 0.1875 11.625 0 14 C-2.73905345 15.36952673 -4.97087332 15.12621361 -8 15 C-8.66 14.67 -9.32 14.34 -10 14 C-9.03644647 4.58997722 -9.03644647 4.58997722 -8 0 C-2.25 -1.125 -2.25 -1.125 0 0 Z " fill="#EBEBEB" transform="translate(118,17)"/>
<path d="M0 0 C0.33 0.66 0.66 1.32 1 2 C1.66 2.33 2.32 2.66 3 3 C0.02948615 8.32217064 -3.31859675 11.61260183 -9 14 C-13.261598 15.0049513 -16.50645171 14.71482026 -20.46484375 12.8203125 C-24.67239937 10.18803297 -28.0378578 7.70914129 -30 3 C-30 2.34 -30 1.68 -30 1 C-29.01 1 -28.02 1 -27 1 C-25.66666667 3 -24.33333333 5 -23 7 C-19.26715244 10.19958363 -15.89531012 10.45855733 -11.1484375 10.29296875 C-6.90320563 9.71407349 -3.63605331 7.29506663 -1 4 C-0.28552357 1.89667109 -0.28552357 1.89667109 0 0 Z " fill="#392BE1" transform="translate(31,23)"/>
<path d="M0 0 C2.31243792 -0.02685412 4.6249627 -0.04632841 6.9375 -0.0625 C8.22527344 -0.07410156 9.51304687 -0.08570312 10.83984375 -0.09765625 C14 0 14 0 15 1 C15.07205511 2.68608966 15.08386068 4.37500659 15.0625 6.0625 C15.05347656 6.98160156 15.04445312 7.90070312 15.03515625 8.84765625 C15.02355469 9.55792969 15.01195312 10.26820312 15 11 C14.01 11 13.02 11 12 11 C12 8.03 12 5.06 12 2 C11.01 2.495 11.01 2.495 10 3 C9.53476937 4.89533342 9.53476937 4.89533342 9.375 7.0625 C9.25125 8.361875 9.1275 9.66125 9 11 C8.01 11 7.02 11 6 11 C6 8.03 6 5.06 6 2 C5.01 2.33 4.02 2.66 3 3 C2.67 5.31 2.34 7.62 2 10 C1.34 10 0.68 10 0 10 C0 6.7 0 3.4 0 0 Z " fill="#E8E8E8" transform="translate(140,17)"/>
<path d="M0 0 C0.99 0.103125 1.98 0.20625 3 0.3125 C5.15502531 3.54503796 5.46856135 4.56400923 5 8.3125 C3.8125 10.125 3.8125 10.125 2 11.3125 C-0.5 11.75 -0.5 11.75 -3 11.3125 C-4.875 9.625 -4.875 9.625 -6 7.3125 C-5.6766322 2.78535079 -4.8005013 0.50005222 0 0 Z " fill="#C9C9C9" transform="translate(68,16.6875)"/>
<path d="M0 0 C3.625 0.375 3.625 0.375 7 1 C6.67 1.99 6.34 2.98 6 4 C3.03 3.505 3.03 3.505 0 3 C1.62366466 6.24732932 4.75387839 6.70155136 8 8 C7.67 9.98 7.34 11.96 7 14 C0.375 15.25 0.375 15.25 -3 13 C-3 12.34 -3 11.68 -3 11 C-0.36 11.33 2.28 11.66 5 12 C5 11.01 5 10.02 5 9 C4.030625 8.855625 3.06125 8.71125 2.0625 8.5625 C-1 8 -1 8 -2 7 C-2.1875 4.5625 -2.1875 4.5625 -2 2 C-1.34 1.34 -0.68 0.68 0 0 Z " fill="#E2E2E2" transform="translate(53,13)"/>
<path d="M0 0 C3 0.25 3 0.25 5 2.25 C5.36487512 5.09602594 5.40199375 6.6364306 3.8125 9.0625 C1.3864306 10.65199375 -0.15397406 10.61487512 -3 10.25 C-5 8.25 -5 8.25 -5.25 5.25 C-4.90584825 1.120179 -4.129821 0.34415175 0 0 Z " fill="#030309" transform="translate(18,14.75)"/>
<path d="M0 0 C2.875 -0.125 2.875 -0.125 6 0 C9.15771423 3.15771423 8.62506773 6.62579022 9 11 C6.03 11 3.06 11 0 11 C-0.625 8.625 -0.625 8.625 -1 6 C-0.34 5.34 0.32 4.68 1 4 C2.32 4 3.64 4 5 4 C5 3.34 5 2.68 5 2 C3.35 2.33 1.7 2.66 0 3 C0 2.01 0 1.02 0 0 Z " fill="#D9D9D9" transform="translate(129,17)"/>
<path d="M0 0 C1.99954746 -0.04254356 4.00041636 -0.04080783 6 0 C7.58272601 1.58272601 7.34735747 3.38034003 7.5625 5.5625 C7.64628906 6.38878906 7.73007813 7.21507812 7.81640625 8.06640625 C7.87699219 8.70449219 7.93757813 9.34257812 8 10 C1.9453125 10.9765625 1.9453125 10.9765625 0 11 C-0.66 10.34 -1.32 9.68 -2 9 C-1.625 6.875 -1.625 6.875 -1 5 C-0.01 5.33 0.98 5.66 2 6 C1.67 6.66 1.34 7.32 1 8 C1.99 7.67 2.98 7.34 4 7 C4.33 6.34 4.66 5.68 5 5 C4.34 4.67 3.68 4.34 3 4 C3.33 3.34 3.66 2.68 4 2 C2.35 2.33 0.7 2.66 -1 3 C-0.67 2.01 -0.34 1.02 0 0 Z " fill="#E2E2E2" transform="translate(93,17)"/>
<path d="M0 0 C0.66 0.33 1.32 0.66 2 1 C2 1.66 2 2.32 2 3 C0.3603125 3.804375 0.3603125 3.804375 -1.3125 4.625 C-5.09521915 6.81057106 -6.54411373 8.79410633 -8 13 C-8.48838809 15.67888119 -8.76554007 18.28026485 -9 21 C-9.66 21 -10.32 21 -11 21 C-11.35480978 16.01295144 -11.58540154 12.17080309 -9.3125 7.625 C-6.53604336 4.47334652 -3.77376371 1.88688186 0 0 Z " fill="#685FE7" transform="translate(12,3)"/>
<path d="M0 0 C0.94875 0.04125 1.8975 0.0825 2.875 0.125 C3.205 1.115 3.535 2.105 3.875 3.125 C0.905 2.63 0.905 2.63 -2.125 2.125 C-2.125 4.105 -2.125 6.085 -2.125 8.125 C-0.145 7.795 1.835 7.465 3.875 7.125 C3.215 8.445 2.555 9.765 1.875 11.125 C-1.0625 10.75 -1.0625 10.75 -4.125 10.125 C-5.50625018 7.36249964 -5.31579306 5.17768901 -5.125 2.125 C-3.125 0.125 -3.125 0.125 0 0 Z " fill="#E0E0E0" transform="translate(80.125,16.875)"/>
<path d="M0 0 C0.99 0 1.98 0 3 0 C3.33 4.62 3.66 9.24 4 14 C2.68 14 1.36 14 0 14 C0 9.38 0 4.76 0 0 Z " fill="#E3E3E3" transform="translate(103,13)"/>
<path d="M0 0 C2.875 -0.1875 2.875 -0.1875 6 0 C8.14915785 3.22373677 8.38286803 4.26703674 8 8 C7.34 8.66 6.68 9.32 6 10 C3.875 9.625 3.875 9.625 2 9 C2.66 8.67 3.32 8.34 4 8 C4 6.35 4 4.7 4 3 C2.02 3.33 0.04 3.66 -2 4 C-1.34 2.68 -0.68 1.36 0 0 Z " fill="#EEEEEE" transform="translate(65,17)"/>
<path d="M0 0 C2.31 0 4.62 0 7 0 C7 0.66 7 1.32 7 2 C6.01 2.33 5.02 2.66 4 3 C3.67 5.64 3.34 8.28 3 11 C2.01 11 1.02 11 0 11 C0 7.37 0 3.74 0 0 Z " fill="#DFDFDF" transform="translate(120,17)"/>
<path d="M0 0 C0.99 0 1.98 0 3 0 C4.3540932 1.98600337 5.68457624 3.98817543 7 6 C9.6091387 8.32277416 9.6091387 8.32277416 12 10 C11.34 10.66 10.68 11.32 10 12 C2.24011713 6.87554905 2.24011713 6.87554905 0 2 C0 1.34 0 0.68 0 0 Z " fill="#3C2FDE" transform="translate(1,24)"/>
<path d="M0 0 C1.98 0.495 1.98 0.495 4 1 C4 4.3 4 7.6 4 11 C3.01 11 2.02 11 1 11 C1 8.03 1 5.06 1 2 C0.34 1.67 -0.32 1.34 -1 1 C-0.67 0.67 -0.34 0.34 0 0 Z " fill="#DADADA" transform="translate(151,17)"/>
<path d="M0 0 C2.31 0.66 4.62 1.32 7 2 C7 3.65 7 5.3 7 7 C6.01 7.33 5.02 7.66 4 8 C4 7.34 4 6.68 4 6 C2.68 6 1.36 6 0 6 C0 4.02 0 2.04 0 0 Z " fill="#9A9A9A" transform="translate(111,24)"/>
<path d="M0 0 C1.48828125 1.11328125 1.48828125 1.11328125 3 3 C3.29296875 5.91796875 3.29296875 5.91796875 3.1875 9.1875 C3.14689453 10.81751953 3.14689453 10.81751953 3.10546875 12.48046875 C3.07066406 13.31191406 3.03585938 14.14335937 3 15 C2.34 15 1.68 15 1 15 C0.93941406 14.32453125 0.87882812 13.6490625 0.81640625 12.953125 C0.73261719 12.06109375 0.64882813 11.1690625 0.5625 10.25 C0.48128906 9.36828125 0.40007813 8.4865625 0.31640625 7.578125 C0.06285099 5.0309789 0.06285099 5.0309789 -0.59765625 2.734375 C-0.73042969 2.16203125 -0.86320312 1.5896875 -1 1 C-0.67 0.67 -0.34 0.34 0 0 Z " fill="#6056EC" transform="translate(31,10)"/>
<path d="M0 0 C0.99 0 1.98 0 3 0 C3 3.63 3 7.26 3 11 C2.01 11 1.02 11 0 11 C0 7.37 0 3.74 0 0 Z " fill="#DBDBDB" transform="translate(86,17)"/>
<path d="M0 0 C6.34507042 0.59859155 6.34507042 0.59859155 8.9375 2.1875 C10.47273259 4.80642619 10.1980568 7.02914805 10 10 C9.34 10 8.68 10 8 10 C7.79375 9.05125 7.5875 8.1025 7.375 7.125 C6.29166667 3.70833333 6.29166667 3.70833333 2.875 2.625 C1.92625 2.41875 0.9775 2.2125 0 2 C0 1.34 0 0.68 0 0 Z " fill="#675DF3" transform="translate(15,12)"/>
<path d="M0 0 C1.98 0.495 1.98 0.495 4 1 C4 2.65 4 4.3 4 6 C2.35 5.67 0.7 5.34 -1 5 C-0.67 3.35 -0.34 1.7 0 0 Z " fill="#161616" transform="translate(66,19)"/>
<path d="M0 0 C3.125 0.375 3.125 0.375 6 1 C5.38125 1.28875 4.7625 1.5775 4.125 1.875 C1.86674235 2.93720042 1.86674235 2.93720042 0 5 C-0.6425235 7.06874034 -0.6425235 7.06874034 -1 9 C-1.66 9 -2.32 9 -3 9 C-2.25 2.25 -2.25 2.25 0 0 Z " fill="#5C52DD" transform="translate(13,13)"/>
<path d="M0 0 C-0.33 1.98 -0.66 3.96 -1 6 C-2.98 6.33 -4.96 6.66 -7 7 C-7 6.34 -7 5.68 -7 5 C-5.68 5 -4.36 5 -3 5 C-3.7763932 1.9254644 -3.7763932 1.9254644 -6 0 C-2.25 -1.125 -2.25 -1.125 0 0 Z " fill="#EFEFEF" transform="translate(118,17)"/>
<path d="M0 0 C1.98 0 3.96 0 6 0 C6 2.31 6 4.62 6 7 C5.67 6.34 5.34 5.68 5 5 C4.34 4.67 3.68 4.34 3 4 C3.33 3.34 3.66 2.68 4 2 C2.35 2.33 0.7 2.66 -1 3 C-0.67 2.01 -0.34 1.02 0 0 Z " fill="#F0F0F0" transform="translate(93,17)"/>
<path d="M0 0 C1.27875 -0.061875 2.5575 -0.12375 3.875 -0.1875 C4.95394531 -0.23970703 4.95394531 -0.23970703 6.0546875 -0.29296875 C6.69664063 -0.19628906 7.33859375 -0.09960938 8 0 C8.66 0.99 9.32 1.98 10 3 C7.03 3 4.06 3 1 3 C0.67 2.01 0.34 1.02 0 0 Z " fill="#271CBF" transform="translate(12,34)"/>
<path d="M0 0 C0.33 0 0.66 0 1 0 C1.33 2.97 1.66 5.94 2 9 C-0.31 8.67 -2.62 8.34 -5 8 C-2 6 -2 6 0 6 C0 4.02 0 2.04 0 0 Z " fill="#D8D8D8" transform="translate(99,18)"/>
<path d="M0 0 C2.31 0.33 4.62 0.66 7 1 C7.33 1.99 7.66 2.98 8 4 C5.69 3.67 3.38 3.34 1 3 C0.67 2.01 0.34 1.02 0 0 Z " fill="#C9C9C9" transform="translate(50,24)"/>
<path d="M0 0 C2.0625 0.4375 2.0625 0.4375 4 1 C3.67 2.32 3.34 3.64 3 5 C2.01 5 1.02 5 0 5 C-0.5625 3.0625 -0.5625 3.0625 -1 1 C-0.67 0.67 -0.34 0.34 0 0 Z " fill="#828282" transform="translate(130,21)"/>
<path d="M0 0 C2.475 0.99 2.475 0.99 5 2 C5 2.99 5 3.98 5 5 C3.68 5 2.36 5 1 5 C1 4.01 1 3.02 1 2 C0.34 1.67 -0.32 1.34 -1 1 C-0.67 0.67 -0.34 0.34 0 0 Z " fill="#7D7D7D" transform="translate(110,17)"/>
</svg>
